<!-- <svg xmlns="http://www.w3.org/2000/svg" viewBox="0 0 14.172 14.172" preserveAspectRatio="xMidYMin meet"><path d="M8 14.172a2.98 2.98 0 01-2.122-.879l-5-5A2.982 2.982 0 010 6.171V2C0 .897.897 0 2 0h4.171c.801 0 1.555.312 2.122.879l5 5A2.98 2.98 0 0114.172 8c0 .801-.312 1.555-.879 2.121l-3.172 3.172A2.982 2.982 0 018 14.172zM2 2v4.171c0 .267.104.519.293.708l5 5a1.024 1.024 0 001.414 0l3.172-3.172a.997.997 0 000-1.414l-5-5A.996.996 0 006.171 2H2z"/><circle cx="5" cy="5" r="1"/></svg> -->
<svg xmlns="http://www.w3.org/2000/svg" width="20" height="20" viewBox="2 0 24 24"><path d="M13.707 3.293A.996.996 0 0 0 13 3H4a1 1 0 0 0-1 1v9c0 .266.105.52.293.707l8 8a.997.997 0 0 0 1.414 0l9-9a.999.999 0 0 0 0-1.414l-8-8zM12 19.586l-7-7V5h7.586l7 7L12 19.586z"></path><circle cx="8.496" cy="8.495" r="1.505"></circle></svg>