<!-- <svg xmlns="http://www.w3.org/2000/svg" viewBox="0 0 12 10" preserveAspectRatio="xMidYMin meet"><path d="M1 2h9a.997.997 0 001-1 .997.997 0 00-1-1H1a.997.997 0 00-1 1 .997.997 0 001 1zm0 4h7a.997.997 0 001-1 .997.997 0 00-1-1H1a.997.997 0 00-1 1 .997.997 0 001 1zm10 2H1a.997.997 0 00-1 1 .997.997 0 001 1h10a.997.997 0 001-1 .997.997 0 00-1-1z"/></svg> -->
<svg xmlns="http://www.w3.org/2000/svg" width="16" height="14" viewBox="2 3 24 24" ><path d="M4 19h16v2H4zm0-4h11v2H4zm0-4h16v2H4zm0-8h16v2H4zm0 4h11v2H4z"></path></svg>