<!-- <svg xmlns="http://www.w3.org/2000/svg" xmlns:xlink="http://www.w3.org/1999/xlink" viewBox="0 0 16 15.282" preserveAspectRatio="xMidYMin meet"><defs><path id="a" d="M0 0h16v15.281H0z"/></defs><clipPath id="b"><use overflow="visible" xlink:href="#a"/></clipPath><g clip-path="url(#b)"><path d="M15.969 5.79a.636.636 0 00-.518-.436l-4.751-.69L8.576.358A.639.639 0 008 .002a.638.638 0 00-.575.356L5.3 4.663l-4.751.69a.646.646 0 00-.516.437.642.642 0 00.16.657l3.438 3.351-.811 4.732a.644.644 0 00.585.748.645.645 0 00.345-.071L8 12.973l4.25 2.234a.634.634 0 00.675-.048.636.636 0 00.255-.627L12.369 9.8l3.438-3.351a.643.643 0 00.162-.659zm-4.996 2.578l-.753.734.178 1.036.346 2.017-1.814-.952-.93-.489-.93.489-1.813.953.346-2.019.178-1.037-.754-.734-1.466-1.429 2.026-.294 1.041-.151.465-.943L8 3.712l.906 1.838.465.943 1.041.151 2.027.294-1.466 1.43z"/></g></svg> -->
<svg xmlns="http://www.w3.org/2000/svg" width="16" height="16" viewBox="0 0 24 24" ><path d="M12 4.595a5.904 5.904 0 0 0-3.996-1.558 5.942 5.942 0 0 0-4.213 1.758c-2.353 2.363-2.352 6.059.002 8.412l7.332 7.332c.17.299.498.492.875.492a.99.99 0 0 0 .792-.409l7.415-7.415c2.354-2.354 2.354-6.049-.002-8.416a5.938 5.938 0 0 0-4.209-1.754A5.906 5.906 0 0 0 12 4.595zm6.791 1.61c1.563 1.571 1.564 4.025.002 5.588L12 18.586l-6.793-6.793c-1.562-1.563-1.561-4.017-.002-5.584.76-.756 1.754-1.172 2.799-1.172s2.035.416 2.789 1.17l.5.5a.999.999 0 0 0 1.414 0l.5-.5c1.512-1.509 4.074-1.505 5.584-.002z"></path></svg>