<!-- <svg xmlns="http://www.w3.org/2000/svg" width="14.5" height="14" viewBox="2 2 17 16"><path d="M20 2H4c-1.103 0-2 .897-2 2v12c0 1.103.897 2 2 2h3v3.767L13.277 18H20c1.103 0 2-.897 2-2V4c0-1.103-.897-2-2-2zm0 14h-7.277L9 18.233V16H4V4h16v12z"></path><path d="m17.207 7.207-1.414-1.414L11 10.586 8.707 8.293 7.293 9.707 11 13.414z"></path></svg> -->
<svg xmlns="http://www.w3.org/2000/svg" width="21" height="21" viewBox="2 2 24 24"><path d="M3 4v12c0 1.103.897 2 2 2h3.586L12 21.414 15.414 18H19c1.103 0 2-.897 2-2V4c0-1.103-.897-2-2-2H5c-1.103 0-2 .897-2 2zm2 0h14v12h-4.414L12 18.586 9.414 16H5V4z"></path><path d="m17.207 7.207-1.414-1.414L11 10.586 8.707 8.293 7.293 9.707 11 13.414z"></path></svg>