<!-- <svg xmlns="http://www.w3.org/2000/svg" width="19" height="19" viewBox="0 0 19 19" preserveAspectRatio="xMidYMin meet"><path fill-rule="evenodd" d="M9.906 16.281a7 7 0 100-14 7 7 0 000 14zm0 2a9 9 0 100-18 9 9 0 000 18z" clip-rule="evenodd"/><circle cx="9.906" cy="9.281" r="1.5"/><circle cx="13.906" cy="9.281" r="1.5"/><circle cx="5.906" cy="9.281" r="1.5"/></svg> -->
<svg xmlns="http://www.w3.org/2000/svg" width="19" height="19" viewBox="0 0 24 24"><path d="M12 10c-1.1 0-2 .9-2 2s.9 2 2 2 2-.9 2-2-.9-2-2-2zm6 0c-1.1 0-2 .9-2 2s.9 2 2 2 2-.9 2-2-.9-2-2-2zM6 10c-1.1 0-2 .9-2 2s.9 2 2 2 2-.9 2-2-.9-2-2-2z"></path></svg>