<!-- <svg xmlns="http://www.w3.org/2000/svg" viewBox="0 0 14 16" preserveAspectRatio="xMidYMin meet"><path d="M8 1a1 1 0 11-2 0 1 1 0 012 0zM5 4a1 1 0 11-2 0 1 1 0 012 0zM8 11a1 1 0 11-2 0 1 1 0 012 0zM11 4a1 1 0 11-2 0 1 1 0 012 0z"/><path d="M6 1h2v10H6V1z"/><path fill-rule="evenodd" d="M6.293.293a.999.999 0 011.414 0l3 3-1.414 1.414L7 2.414 4.707 4.707 3.293 3.293l3-3z" clip-rule="evenodd"/><circle cx="11" cy="8" r="1"/><circle cx="3" cy="8" r="1"/><path d="M11 16H3c-1.654 0-3-1.346-3-3V9.5C0 8.122 1.122 7 2.5 7H3v2h-.5a.5.5 0 00-.5.5V13c0 .552.449 1 1 1h8a1 1 0 001-1V9.5c0-.275-.225-.5-.5-.5H11V7h.5C12.879 7 14 8.122 14 9.5V13c0 1.654-1.346 3-3 3z"/></svg> -->
<svg xmlns="http://www.w3.org/2000/svg" width="17" height="17" viewBox="0 0 24 24"><path d="M5.5 15a3.51 3.51 0 0 0 2.36-.93l6.26 3.58a3.06 3.06 0 0 0-.12.85 3.53 3.53 0 1 0 1.14-2.57l-6.26-3.58a2.74 2.74 0 0 0 .12-.76l6.15-3.52A3.49 3.49 0 1 0 14 5.5a3.35 3.35 0 0 0 .12.85L8.43 9.6A3.5 3.5 0 1 0 5.5 15zm12 2a1.5 1.5 0 1 1-1.5 1.5 1.5 1.5 0 0 1 1.5-1.5zm0-13A1.5 1.5 0 1 1 16 5.5 1.5 1.5 0 0 1 17.5 4zm-12 6A1.5 1.5 0 1 1 4 11.5 1.5 1.5 0 0 1 5.5 10z"></path></svg>