<!-- <svg xmlns="http://www.w3.org/2000/svg" viewBox="0 0 21 21" preserveAspectRatio="xMidYMin meet"><circle cx="8" cy="3" r="1"/><circle cx="18" cy="13" r="1"/><path d="M10 15a1 1 0 11-2 0 1 1 0 012 0zM7 12a1 1 0 11-2 0 1 1 0 012 0zM7 15a1 1 0 11-2 0 1 1 0 012 0zM18 1a1 1 0 11-2 0 1 1 0 012 0zM21 4a1 1 0 11-2 0 1 1 0 012 0z"/><path d="M6 14h3v2H6v-2z"/><path d="M5 12h2v3H5v-3z"/><path fill-rule="evenodd" d="M17.707 1.707l-11 11-1.414-1.414 11-11 1.414 1.414zm3 3l-11 11-1.414-1.414 11-11 1.414 1.414z" clip-rule="evenodd"/><path fill-rule="evenodd" d="M19.293 4.707l-3-3L17.707.293l3 3-1.414 1.414z" clip-rule="evenodd"/><path d="M16 21H3c-1.654 0-3-1.346-3-3V5c0-1.654 1.346-3 3-3h5v2H3c-.551 0-1 .449-1 1v13c0 .552.449 1 1 1h13a1 1 0 001-1v-5h2v5c0 1.654-1.346 3-3 3z"/></svg> -->
<svg xmlns="http://www.w3.org/2000/svg" width="32" height="32" viewBox="5 2 24 24" ><path d="M8.586 18 12 21.414 15.414 18H19c1.103 0 2-.897 2-2V4c0-1.103-.897-2-2-2H5c-1.103 0-2 .897-2 2v12c0 1.103.897 2 2 2h3.586zM5 4h14v12h-4.414L12 18.586 9.414 16H5V4z"></path><path d="m12.479 7.219-4.977 4.969v1.799h1.8l4.975-4.969zm2.219-2.22 1.8 1.8-1.37 1.37-1.8-1.799z"></path></svg>