<!-- <svg xmlns="http://www.w3.org/2000/svg" viewBox="0 0 22 22" preserveAspectRatio="xMidYMin meet"><path d="M17 22H5c-2.757 0-5-2.243-5-5V5c0-2.757 2.243-5 5-5h12c2.757 0 5 2.243 5 5v12c0 2.757-2.243 5-5 5zM5 2C3.346 2 2 3.346 2 5v12c0 1.654 1.346 3 3 3h12c1.654 0 3-1.346 3-3V5c0-1.654-1.346-3-3-3H5z"/><path d="M10 6h2v10h-2z"/><path d="M6 10h10v2H6z"/><circle cx="11" cy="6" r="1"/><circle cx="6" cy="11" r="1"/><circle cx="11" cy="16" r="1"/><circle cx="16" cy="11" r="1"/></svg> -->
<svg xmlns="http://www.w3.org/2000/svg" width="32" height="32" viewBox="3.5 2 24 24"><path d="M3 16c0 1.103.897 2 2 2h3.586L12 21.414 15.414 18H19c1.103 0 2-.897 2-2V4c0-1.103-.897-2-2-2H5c-1.103 0-2 .897-2 2v12zM5 4h14v12h-4.414L12 18.586 9.414 16H5V4z"></path><path d="M11 14h2v-3h3V9h-3V6h-2v3H8v2h3z"></path></svg>