<!-- <svg xmlns="http://www.w3.org/2000/svg" xmlns:xlink="http://www.w3.org/1999/xlink" viewBox="0 0 16.753 16" preserveAspectRatio="xMidYMin meet"><defs><path id="a" d="M0 0h16.753v16H0z"/></defs><clipPath id="b"><use overflow="visible" xlink:href="#a"/></clipPath><g clip-path="url(#b)"><path d="M16.72 6.063a.675.675 0 00-.542-.457l-4.975-.722L8.979.375a.673.673 0 00-1.205 0L5.549 4.883l-4.974.722a.678.678 0 00-.542.458.667.667 0 00.17.688l3.6 3.508-.85 4.954a.681.681 0 00.613.783.68.68 0 00.36-.073l4.45-2.338 4.45 2.339a.676.676 0 00.707-.05.674.674 0 00.267-.656l-.85-4.954 3.6-3.508a.673.673 0 00.17-.693z"/></g></svg> -->
<!-- <svg xmlns="http://www.w3.org/2000/svg" width="16" height="16" viewBox="0 0 24 24" ><path d="M12 4.595a5.904 5.904 0 0 0-3.996-1.558 5.942 5.942 0 0 0-4.213 1.758c-2.353 2.363-2.352 6.059.002 8.412l7.332 7.332c.17.299.498.492.875.492a.99.99 0 0 0 .792-.409l7.415-7.415c2.354-2.354 2.354-6.049-.002-8.416a5.938 5.938 0 0 0-4.209-1.754A5.906 5.906 0 0 0 12 4.595zm6.791 1.61c1.563 1.571 1.564 4.025.002 5.588L12 18.586l-6.793-6.793c-1.562-1.563-1.561-4.017-.002-5.584.76-.756 1.754-1.172 2.799-1.172s2.035.416 2.789 1.17l.5.5a.999.999 0 0 0 1.414 0l.5-.5c1.512-1.509 4.074-1.505 5.584-.002z"></path></svg> -->
<!-- <svg xmlns="http://www.w3.org/2000/svg" width="24" height="24" viewBox="0 0 24 24"><path d="M20.205 4.791a5.938 5.938 0 0 0-4.209-1.754A5.906 5.906 0 0 0 12 4.595a5.904 5.904 0 0 0-3.996-1.558 5.942 5.942 0 0 0-4.213 1.758c-2.353 2.363-2.352 6.059.002 8.412L12 21.414l8.207-8.207c2.354-2.353 2.355-6.049-.002-8.416z"></path></svg> -->
<svg xmlns="http://www.w3.org/2000/svg" width="21" height="20" viewBox="2 2 24 24" ><path d="M20.205 4.791a5.938 5.938 0 0 0-4.209-1.754A5.906 5.906 0 0 0 12 4.595a5.904 5.904 0 0 0-3.996-1.558 5.942 5.942 0 0 0-4.213 1.758c-2.353 2.363-2.352 6.059.002 8.412L12 21.414l8.207-8.207c2.354-2.353 2.355-6.049-.002-8.416z"></path></svg>