<!-- <svg xmlns="http://www.w3.org/2000/svg" viewBox="0 0 21 21" preserveAspectRatio="xMidYMin meet"><path d="M10.5 21C4.71 21 0 16.29 0 10.5S4.71 0 10.5 0 21 4.71 21 10.5 16.29 21 10.5 21zm0-19C5.813 2 2 5.813 2 10.5c0 4.687 3.813 8.5 8.5 8.5 4.687 0 8.5-3.813 8.5-8.5C19 5.813 15.187 2 10.5 2z"/><circle cx="6" cy="11" r="1"/><circle cx="15" cy="8" r="1"/><path d="M9 14.792c-.384 0-.768-.146-1.061-.438l-2.646-2.646 1.414-1.414L9 12.586l5.293-5.293 1.414 1.414-5.646 5.646A1.495 1.495 0 019 14.792z"/></svg> -->
<!-- <svg xmlns="http://www.w3.org/2000/svg" width="32" height="32" viewBox="4 3 24 24" ><path d="M20 2H4c-1.103 0-2 .897-2 2v12c0 1.103.897 2 2 2h3v3.767L13.277 18H20c1.103 0 2-.897 2-2V4c0-1.103-.897-2-2-2zm0 14h-7.277L9 18.233V16H4V4h16v12z"></path><path d="m17.207 7.207-1.414-1.414L11 10.586 8.707 8.293 7.293 9.707 11 13.414z"></path></svg> -->
<svg xmlns="http://www.w3.org/2000/svg" width="33" height="32" viewBox="4 3 24 24"><path d="M3 4v12c0 1.103.897 2 2 2h3.586L12 21.414 15.414 18H19c1.103 0 2-.897 2-2V4c0-1.103-.897-2-2-2H5c-1.103 0-2 .897-2 2zm2 0h14v12h-4.414L12 18.586 9.414 16H5V4z"></path><path d="m17.207 7.207-1.414-1.414L11 10.586 8.707 8.293 7.293 9.707 11 13.414z"></path></svg>