<svg version="1.2" xmlns="http://www.w3.org/2000/svg" viewBox="0 0 140 40" width="140" height="40">
	<path id="curathor" aria-label="curathor"  d="m14 15.8q-1.9 0-3 1.5-1 1.4-1 3.5 0 2.1 1 3.5 1.1 1.3 3 1.3 1.1 0 2-0.2 1-0.3 2.2-0.9l1.2 3.2q-1.1 0.9-2.8 1.3-1.6 0.4-2.7 0.4-4 0-6.2-2.3-2.3-2.4-2.3-6.3 0-4 2.3-6.4 2.2-2.3 6.2-2.3 1.1 0 2.7 0.4 1.6 0.5 2.8 1.3l-1.2 3.2q-1.2-0.6-2.2-0.9-0.9-0.3-2-0.3zm21.6 13.2l-1.2-1.6q-1.2 1-2.8 1.7-1.6 0.6-3 0.6-3.3 0-4.7-2-1.4-2-1.4-4.8v-10.4h4.4v10.2q0 1.5 0.8 2.4 0.7 0.8 2.1 0.8 0.9 0 1.9-0.4 1-0.5 1.8-1.1v-11.9h4.4v16.5zm15.6-16.5l0.9 3.5q-1.1 0-2.6 0.7-1.5 0.6-2.9 1.9v10.4h-4.4v-16.5h2.3l1.5 2.4q1-0.9 2.4-1.6 1.5-0.8 2.8-0.8zm6.5 11.6q0 0.7 0.5 1.3 0.6 0.5 1.6 0.5 0.9 0 1.8-0.4 1-0.4 1.8-1.2v-2.5h-3.3q-1.2 0-1.8 0.7-0.6 0.7-0.6 1.6zm2.1 5.3q-3 0-4.4-1.5-1.5-1.4-1.5-3.8 0-2.6 1.7-3.9 1.8-1.4 4.5-1.4h3.3q-0.1-1.3-0.8-1.9-0.7-0.8-1.9-0.8-1.1 0-2.5 0.4-1.4 0.3-2.3 0.7l-1.2-3.6q1-0.7 2.9-1.1 2-0.4 3.1-0.4 2.9 0 5 1.7 2.1 1.7 2.1 4.4v10.8h-2.2l-1.1-1.4q-1 0.7-2.2 1.3-1.2 0.5-2.5 0.5zm21-3.9l1.3 3.2q-0.5 0.4-1.6 0.7-0.9 0.3-1.7 0.3-3.1 0-4.9-1.6-1.7-1.5-1.7-4.4v-7.8h-2.2v-3.4h2.2v-3.9l4.4-0.7v4.6h3l1.4 3.4h-4.4v7q0 1.3 0.6 2.2 0.6 0.8 1.8 0.8 0.5 0 0.9-0.1 0.4-0.1 0.9-0.3zm8.4-20.5v8.6q1.1-0.9 2.5-1.3 1.4-0.4 2.5-0.4 3.4 0 4.8 1.9 1.4 2 1.4 4.9v10.3h-4.4v-10.1q0-1.6-0.8-2.4-0.7-0.9-2.2-0.9-0.9 0-1.9 0.5-1.1 0.5-1.9 1.2v11.7h-4.4v-23.6zm22.9 24.4q-3.9 0-6.1-2.4-2.2-2.3-2.2-6.3 0-4 2.3-6.3 2.3-2.4 6.2-2.4 4.2 0 6.4 2.5 2.3 2.4 2.3 6.3 0 4-2.5 6.3-2.4 2.3-6.4 2.3zm4.3-8.6q0-2.3-1-3.6-1-1.4-2.9-1.4-2 0-3.1 1.2-1.1 1.2-1.1 3.6 0 2.5 1 3.7 0.9 1.3 2.8 1.3 1.9 0 3.1-1.1 1.2-1.2 1.2-3.7zm17.2-8.3l0.8 3.5q-1.1 0-2.6 0.7-1.4 0.6-2.9 1.9v10.4h-4.4v-16.5h2.3l1.5 2.4q1-0.9 2.5-1.6 1.4-0.8 2.8-0.8z"/>
</svg>