<svg version="1.2" xmlns="http://www.w3.org/2000/svg" viewBox="0 0 80 80" width="80" height="80">
	<title>Proyecto nuevo</title>
	<style>
		.s0 { fill: #0867e2 } 
	</style>
	<path id="ct" class="s0" aria-label="ct"  d="m28.8 33.5q-3.9 0-6.1 3-2.2 2.9-2.2 7.3 0 4.5 2.2 7.3 2.2 2.9 6.1 2.9 2.4 0 4.3-0.6 2-0.6 4.5-1.8l2.6 6.7q-2.4 1.8-5.9 2.7-3.4 0.9-5.6 0.9-8.3 0-13-4.9-4.7-4.9-4.7-13.2 0-8.2 4.7-13.2 4.7-5 13-5 2.2 0 5.6 1 3.4 0.9 5.9 2.7l-2.6 6.6q-2.5-1.2-4.5-1.7-1.9-0.7-4.3-0.7zm36.7 20.1l2.7 6.7q-1.1 0.9-3.3 1.6-2 0.5-3.7 0.5-6.3 0-10-3.2-3.7-3.2-3.7-9.2v-16.3h-4.6v-7.1h4.6v-8.1l9.2-1.7v9.8h6.3l2.8 7.1h-9.1v14.7q0 2.7 1.3 4.4 1.3 1.7 3.7 1.7 1 0 1.9-0.2 0.9-0.2 1.9-0.7z"/>
</svg>