<!-- <svg xmlns="http://www.w3.org/2000/svg" viewBox="0 0 13 14.5" preserveAspectRatio="xMidYMin meet"><path d="M12.5 14.5a.5.5 0 01-.5-.5v-2c0-.827-.673-1.5-1.5-1.5h-8c-.827 0-1.5.673-1.5 1.5v2a.5.5 0 01-1 0v-2c0-1.379 1.122-2.5 2.5-2.5h8c1.379 0 2.5 1.121 2.5 2.5v2a.5.5 0 01-.5.5zM6.5 8c-2.206 0-4-1.794-4-4s1.794-4 4-4 4 1.794 4 4-1.794 4-4 4zm0-7c-1.654 0-3 1.346-3 3s1.346 3 3 3 3-1.346 3-3-1.346-3-3-3z"/></svg> -->
<svg xmlns="http://www.w3.org/2000/svg" width="16" height="16" viewBox="0 0 24 24" ><path d="M12 2A10.13 10.13 0 0 0 2 12a10 10 0 0 0 4 7.92V20h.1a9.7 9.7 0 0 0 11.8 0h.1v-.08A10 10 0 0 0 22 12 10.13 10.13 0 0 0 12 2zM8.07 18.93A3 3 0 0 1 11 16.57h2a3 3 0 0 1 2.93 2.36 7.75 7.75 0 0 1-7.86 0zm9.54-1.29A5 5 0 0 0 13 14.57h-2a5 5 0 0 0-4.61 3.07A8 8 0 0 1 4 12a8.1 8.1 0 0 1 8-8 8.1 8.1 0 0 1 8 8 8 8 0 0 1-2.39 5.64z"></path><path d="M12 6a3.91 3.91 0 0 0-4 4 3.91 3.91 0 0 0 4 4 3.91 3.91 0 0 0 4-4 3.91 3.91 0 0 0-4-4zm0 6a1.91 1.91 0 0 1-2-2 1.91 1.91 0 0 1 2-2 1.91 1.91 0 0 1 2 2 1.91 1.91 0 0 1-2 2z"></path></svg>
