<!-- <svg xmlns="http://www.w3.org/2000/svg" viewBox="0 0 16 11" preserveAspectRatio="xMidYMin meet"><path d="M14 11H2c-1.103 0-2-.897-2-2V2C0 .897.897 0 2 0h12c1.103 0 2 .897 2 2v7c0 1.103-.897 2-2 2zM2 1c-.551 0-1 .449-1 1v7c0 .552.449 1 1 1h12a1 1 0 001-1V2c0-.551-.448-1-1-1H2z"/><path d="M0 3h16v1.1H0z"/></svg> -->
<svg xmlns="http://www.w3.org/2000/svg" width="16" height="16" viewBox="0 4 24 24"><path d="M20 4H4c-1.103 0-2 .897-2 2v12c0 1.103.897 2 2 2h16c1.103 0 2-.897 2-2V6c0-1.103-.897-2-2-2zM4 6h16v2H4V6zm0 12v-6h16.001l.001 6H4z"></path><path d="M6 14h6v2H6z"></path></svg>