<!-- <svg xmlns="http://www.w3.org/2000/svg" width="16" height="15" viewBox="0 0 16 15" preserveAspectRatio="xMidYMin meet"><path fill-rule="evenodd" d="M8 2.807l-.71-.717a3.655 3.655 0 00-5.207 0 3.764 3.764 0 000 5.284L8 13.348l5.917-5.974a3.764 3.764 0 000-5.284 3.655 3.655 0 00-5.206 0L8 2.807zm0 11.962L1.373 8.078a4.764 4.764 0 010-6.692 4.654 4.654 0 016.627 0l.066-.065a4.654 4.654 0 016.561.065 4.764 4.764 0 010 6.692L8 14.769z" clip-rule="evenodd"/></svg> -->
<svg xmlns="http://www.w3.org/2000/svg" width="16" height="16" viewBox="0 0 24 24" ><path d="M15 11h7v2h-7zm1 4h6v2h-6zm-2-8h8v2h-8zM4 19h10v-1c0-2.757-2.243-5-5-5H7c-2.757 0-5 2.243-5 5v1h2zm4-7c1.995 0 3.5-1.505 3.5-3.5S9.995 5 8 5 4.5 6.505 4.5 8.5 6.005 12 8 12z"></path></svg>