<!-- <svg xmlns="http://www.w3.org/2000/svg" viewBox="0 0 14 9" preserveAspectRatio="xMidYMin meet"><path d="M12 9H2C.897 9 0 8.103 0 7V2C0 .897.897 0 2 0h10c1.103 0 2 .897 2 2v5c0 1.103-.897 2-2 2zM2 1c-.551 0-1 .449-1 1v5c0 .552.449 1 1 1h10a1 1 0 001-1V2c0-.551-.448-1-1-1H2z"/><path d="M7 6.153c-.453 0-.906-.124-1.31-.373L.238 2.426l.524-.852 5.452 3.354a1.49 1.49 0 001.572 0l5.453-3.354.523.852L8.31 5.78A2.492 2.492 0 017 6.153z"/></svg> -->
<svg xmlns="http://www.w3.org/2000/svg" width="16" height="16" viewBox="0 0 24 24" ><path d="M19.875 3H4.125C2.953 3 2 3.897 2 5v14c0 1.103.953 2 2.125 2h15.75C21.047 21 22 20.103 22 19V5c0-1.103-.953-2-2.125-2zm0 16H4.125c-.057 0-.096-.016-.113-.016-.007 0-.011.002-.012.008L3.988 5.046c.007-.01.052-.046.137-.046h15.75c.079.001.122.028.125.008l.012 13.946c-.007.01-.052.046-.137.046z"></path><path d="M6 7h6v6H6zm7 8H6v2h12v-2h-4zm1-4h4v2h-4zm0-4h4v2h-4z"></path></svg>